<svg xmlns="http://www.w3.org/2000/svg" xmlns:xlink="http://www.w3.org/1999/xlink" width="600" height="360" xmlns:v="https://vecta.io/nano"><style><![CDATA[.B{fill:#000}.C{font-family:Bitstream Vera Sans}.D{text-anchor:middle}.E{stroke:#000}.F{font-size:24px}.G{fill-rule:evenodd}.H{stroke-width:.2pt}.I{font-size:48px}]]></style><defs><linearGradient id="A" x1="510.5" y1="99.5" x2="552.52" y2="99.5" gradientUnits="userSpaceOnUse"><stop offset="0"/><stop offset="1" stop-opacity="0"/></linearGradient><linearGradient id="B" x1="60.5" y1="89.5" x2="20.5" y2="89.5" gradientUnits="userSpaceOnUse"><stop offset="0"/><stop offset="1" stop-opacity="0"/></linearGradient><path id="C" d="M52 120a2 2 0 1 1-4 0 2 2 0 1 1 4 0z"/><path id="D" d="M508.614 291.386a2 2 0 1 1 2.828-2.828 2 2 0 1 1-2.828 2.828z"/></defs><g transform="translate(-.5 -19.5)"><switch fill-opacity="1" stroke="none" class="B D"><text xml:space="preserve" x="299.848" y="59.5" systemLanguage="uk" class="B C I"><tspan x="299.848" y="59.5">Послідовний доступ</tspan></text><text xml:space="preserve" x="299.848" y="59.5" class="B C I"><tspan x="299.848" y="59.5">Sequential access</tspan></text></switch><path d="M60 110h60v20H60z" fill="none" class="E"/><path d="M109.906 86.625c-2.113.05-4.28.458-6.469 1.188-11.309 3.77-23.44 15.737-33.344 30.219-.685-.039-1.373.294-1.781.906-.612.919-.356 2.138.563 2.75s2.169.387 2.781-.531c.403-.604.413-1.356.125-1.969 9.768-14.269 21.791-26.003 32.281-29.5 5.414-1.805 10.308-1.487 14.563 1.594 2.831 2.05 5.425 5.423 7.563 10.344-1.132.045-2.282-.176-3.375-.625l7.844 11.563 1.5-13.875c-1.071 1.263-2.464 2.112-3.969 2.563-2.267-5.406-5.084-9.21-8.375-11.594A15.8 15.8 0 0 0 112 86.688c-.691-.068-1.389-.079-2.094-.062z" class="G"/><g fill="none" class="E"><path d="M120 110h60v20h-60z"/><path d="M180 110h60v20h-60z"/><path d="M240 110h60v20h-60z"/><path d="M300 110h60v20h-60z"/><path d="M360 110h60v20h-60z"/><path d="M420 110h60v20h-60z"/></g><g class="G"><path d="M489.906 256.625c-2.113.05-4.28.458-6.469 1.188-11.672 3.891-24.21 16.518-34.281 31.625l1.688 1.125c9.929-14.893 22.39-27.266 33.219-30.875 5.414-1.805 10.308-1.487 14.563 1.594 2.829 2.049 5.393 5.428 7.531 10.344-1.122.041-2.261-.181-3.344-.625l7.844 11.563 1.5-13.875c-1.071 1.263-2.464 2.112-3.969 2.563-2.265-5.404-5.085-9.211-8.375-11.594a15.8 15.8 0 0 0-7.812-2.969c-.691-.068-1.389-.079-2.094-.062z"/><path d="M451.087 288.369a2 2 0 1 1-2.219 3.328 2 2 0 1 1 2.219-3.328z" class="E H"/></g><use xlink:href="#C"/><use xlink:href="#C" x="-10"/><use xlink:href="#C" x="-20"/><path d="M50.406 76.125c-2.113.05-4.28.458-6.469 1.188-11.672 3.891-24.21 16.518-34.281 31.625l1.688 1.125c9.929-14.893 22.39-27.266 33.219-30.875 5.414-1.805 10.308-1.487 14.563 1.594 2.833 2.052 5.395 5.416 7.531 10.344-1.122.041-2.261-.181-3.344-.625l7.844 11.563 1.5-13.875c-1.071 1.263-2.464 2.112-3.969 2.563-2.266-5.398-5.087-9.213-8.375-11.594a15.8 15.8 0 0 0-7.812-2.969c-.691-.068-1.389-.079-2.094-.062z" fill="url(#B)" transform="translate(-.5 10.5)" class="G"/><switch fill-opacity="1" stroke="none" class="B D"><text y="219.5" x="299.039" xml:space="preserve" systemLanguage="uk" class="B C I"><tspan y="219.5" x="299.039">Довільний доступ</tspan></text><text y="219.5" x="299.039" xml:space="preserve" class="B C I"><tspan y="219.5" x="299.039">Random access</tspan></text></switch><use xlink:href="#C" x="520"/><use xlink:href="#C" x="510"/><use xlink:href="#C" x="500"/><path d="M480 110h60v20h-60z" fill="none" class="E"/><path d="M529.906 86.625c-2.113.05-4.28.458-6.469 1.188-11.309 3.77-23.44 15.737-33.344 30.219-.685-.039-1.373.294-1.781.906-.612.919-.356 2.138.563 2.75s2.169.387 2.781-.531c.403-.604.413-1.356.125-1.969 9.768-14.269 21.791-26.003 32.281-29.5 5.414-1.805 10.308-1.487 14.563 1.594 2.831 2.05 5.425 5.423 7.563 10.344-1.132.045-2.282-.176-3.375-.625l7.844 11.563 1.5-13.875c-1.071 1.263-2.464 2.112-3.969 2.563-2.267-5.406-5.084-9.21-8.375-11.594A15.8 15.8 0 0 0 532 86.688c-.691-.068-1.389-.079-2.094-.062z" fill="url(#A)" class="G"/><path d="M60 280h60v20H60z" fill="none" class="E"/><g class="G"><path d="M200.844 237.781l-2.687.063A146.96 146.96 0 0 0 183.625 239c-38.999 5.032-79.186 25.029-94.469 50.5l1.688 1c14.718-24.529 54.53-44.532 93.031-49.5 19.25-2.484 38.159-1.223 53.406 4.938 12.552 5.072 22.591 13.422 28.5 25.813a8.11 8.11 0 0 1-3.281-.5l8.25 11.281 1.031-13.906c-1.05 1.326-2.442 2.227-3.969 2.719-6.121-13.105-16.709-22-29.781-27.281-11.032-4.457-23.797-6.4-37.187-6.281z"/><path d="M91.008 288.319a2 2 0 1 1-2.058 3.43 2 2 0 1 1 2.058-3.43z" class="E H"/></g><g fill="none" class="E"><path d="M120 280h60v20h-60z"/><path d="M180 280h60v20h-60z"/><path d="M240 280h60v20h-60z"/><path d="M300 280h60v20h-60z"/><path d="M360 280h60v20h-60z"/><path d="M420 280h60v20h-60z"/><path d="M480 280h60v20h-60z"/></g><g class="G"><path d="M341.281 237.781l-4.094.063c-7.308.138-14.761.53-22.281 1.156-60.16 5.013-125.228 25.025-165.437 50.156l1.063 1.688c39.79-24.869 104.723-44.857 164.563-49.844 29.92-2.493 58.567-1.239 82.156 4.969 19.955 5.251 36.198 14.044 46.688 27.031-1.045.322-2.181.443-3.312.313l10.719 8.969L449 268.5a8.3 8.3 0 0 1-3.156 3.594c-10.827-13.624-27.677-22.69-48.094-28.062-16.812-4.424-36.063-6.366-56.469-6.25z"/><path d="M151.662 288.961a2 2 0 1 1-3.392 2.12 2 2 0 1 1 3.392-2.12z" class="E H"/><path d="M509.281 289.281c-19.882 19.882-44.746 34.77-66.937 38.469-11.096 1.849-21.512.916-30.344-3.5-6.694-3.347-12.496-8.713-17.062-16.469a8.1 8.1 0 0 1 3.406.156L389 297.563l.406 13.938a8.27 8.27 0 0 1 3.563-3.094c4.795 8.273 10.993 14.075 18.156 17.656 9.293 4.646 20.127 5.588 31.531 3.688 22.808-3.801 47.945-18.913 68.063-39.031l-1.437-1.437z"/><use xlink:href="#D" class="E H"/><path d="M283.375 249.375l-1.75.031c-2.657.103-5.365.368-8.062.844-21.58 3.808-44.193 18.943-64.281 39.031l1.438 1.438c19.912-19.912 42.299-34.777 63.219-38.469 18.622-3.286 36.075 2.084 50.156 20.75-1.126.426-2.343.618-3.594.5l10.875 8.75-2.594-13.719c-.635 1.47-1.688 2.667-2.937 3.531-12.045-16.03-26.775-22.794-42.469-22.687z"/><path d="M211.386 288.614a2 2 0 0 1-2.828 2.828 2 2 0 0 1 2.828-2.828z" class="E H"/><path d="M269.281 289.281c-19.882 19.882-44.746 34.77-66.937 38.469-11.096 1.849-21.512.916-30.344-3.5-6.694-3.347-12.495-8.713-17.062-16.469a8.1 8.1 0 0 1 3.406.156L149 297.563l.406 13.938a8.27 8.27 0 0 1 3.563-3.094c4.793 8.278 10.99 14.073 18.156 17.656 9.293 4.646 20.127 5.588 31.531 3.688 22.808-3.801 47.945-18.913 68.063-39.031l-1.437-1.437z"/><use xlink:href="#D" x="-240" class="E H"/></g><text xml:space="preserve" x="90.902" y="160" font-size="12" class="B C D"><tspan x="90.902" y="160" class="F">1</tspan></text><text xml:space="preserve" x="150.287" y="160" class="B C D F"><tspan x="150.287" y="160">2</tspan></text><text y="160" x="210.047" xml:space="preserve" class="B C D F"><tspan y="160" x="210.047">3</tspan></text><text xml:space="preserve" x="270.434" y="160" class="B C D F"><tspan x="270.434" y="160">4</tspan></text><text y="160" x="329.988" xml:space="preserve" class="B C D F"><tspan y="160" x="329.988">5</tspan></text><text xml:space="preserve" x="390.105" y="160" class="B C D F"><tspan x="390.105" y="160">6</tspan></text><text y="160" x="449.982" xml:space="preserve" class="B C D F"><tspan y="160" x="449.982">7</tspan></text><text xml:space="preserve" x="510.047" y="160" class="B C D F"><tspan x="510.047" y="160">8</tspan></text><text y="360" x="90.902" xml:space="preserve" font-size="12" class="B C D"><tspan y="360" x="90.902" class="F">1</tspan></text><text y="360" x="150.287" xml:space="preserve" class="B C D F"><tspan y="360" x="150.287">3</tspan></text><text xml:space="preserve" x="210.047" y="360" class="B C D F"><tspan x="210.047" y="360">7</tspan></text><text y="360" x="270.434" xml:space="preserve" class="B C D F"><tspan y="360" x="270.434">2</tspan></text><text xml:space="preserve" x="329.988" y="360" class="B C D F"><tspan x="329.988" y="360">8</tspan></text><text y="360" x="390.105" xml:space="preserve" class="B C D F"><tspan y="360" x="390.105">6</tspan></text><text xml:space="preserve" x="449.982" y="360" class="B C D F"><tspan x="449.982" y="360">4</tspan></text><text y="360" x="510.047" xml:space="preserve" class="B C D F"><tspan y="360" x="510.047">5</tspan></text><g class="G"><path d="M389.281 289.281c-19.705 19.705-59.568 34.738-96.875 38.469-18.654 1.865-36.684.912-51.187-3.562-11.003-3.395-19.951-8.761-25.75-16.469a8.03 8.03 0 0 1 2.875.219L209 297.563l.406 13.938a8.28 8.28 0 0 1 4-3.281c6.101 8.479 15.666 14.332 27.25 17.906 14.872 4.588 33.091 5.51 51.938 3.625 37.693-3.769 77.83-18.737 98.125-39.031l-1.437-1.437z"/><use xlink:href="#D" x="-120" class="E H"/></g><use xlink:href="#C" x="280.5" y="169.5"/><path d="M169.906 86.625c-2.113.05-4.28.458-6.469 1.188-11.309 3.77-23.44 15.737-33.344 30.219-.685-.039-1.373.294-1.781.906-.612.919-.356 2.138.563 2.75s2.169.387 2.781-.531c.403-.604.413-1.356.125-1.969 9.768-14.269 21.791-26.003 32.281-29.5 5.414-1.805 10.308-1.487 14.563 1.594 2.831 2.05 5.425 5.423 7.563 10.344-1.132.045-2.282-.176-3.375-.625l7.844 11.563 1.5-13.875c-1.071 1.263-2.464 2.112-3.969 2.563-2.267-5.406-5.084-9.21-8.375-11.594a15.8 15.8 0 0 0-7.813-2.97 17.15 17.15 0 0 0-2.094-.062zm60 0c-2.113.05-4.28.458-6.469 1.188-11.309 3.77-23.44 15.737-33.344 30.219-.685-.039-1.373.294-1.781.906-.612.919-.356 2.138.563 2.75s2.169.387 2.781-.531c.403-.604.413-1.356.125-1.969 9.768-14.269 21.791-26.003 32.281-29.5 5.414-1.805 10.308-1.487 14.563 1.594 2.831 2.05 5.425 5.423 7.563 10.344-1.132.045-2.282-.176-3.375-.625l7.844 11.563 1.5-13.875c-1.071 1.263-2.464 2.112-3.969 2.563-2.267-5.406-5.084-9.21-8.375-11.594a15.8 15.8 0 0 0-7.813-2.97 17.15 17.15 0 0 0-2.094-.062zm60 0c-2.113.05-4.28.458-6.469 1.188-11.309 3.77-23.44 15.737-33.344 30.219-.685-.039-1.373.294-1.781.906-.612.919-.356 2.138.563 2.75s2.169.387 2.781-.531c.403-.604.413-1.356.125-1.969 9.768-14.269 21.791-26.003 32.281-29.5 5.414-1.805 10.308-1.487 14.563 1.594 2.831 2.05 5.425 5.423 7.563 10.344-1.132.045-2.282-.176-3.375-.625l7.844 11.563 1.5-13.875c-1.071 1.263-2.464 2.112-3.969 2.563-2.267-5.406-5.084-9.21-8.375-11.594a15.8 15.8 0 0 0-7.813-2.97 17.15 17.15 0 0 0-2.094-.062zm60 0c-2.113.05-4.28.458-6.469 1.188-11.309 3.77-23.44 15.737-33.344 30.219-.685-.039-1.373.294-1.781.906-.612.919-.356 2.138.563 2.75s2.169.387 2.781-.531c.403-.604.413-1.356.125-1.969 9.768-14.269 21.791-26.003 32.281-29.5 5.414-1.805 10.308-1.487 14.563 1.594 2.831 2.05 5.425 5.423 7.563 10.344-1.132.045-2.282-.176-3.375-.625l7.844 11.563 1.5-13.875c-1.071 1.263-2.464 2.112-3.969 2.563-2.267-5.406-5.084-9.21-8.375-11.594a15.8 15.8 0 0 0-7.813-2.97 17.15 17.15 0 0 0-2.094-.062zm60 0c-2.113.05-4.28.458-6.469 1.188-11.309 3.77-23.44 15.737-33.344 30.219-.685-.039-1.373.294-1.781.906-.612.919-.356 2.138.563 2.75s2.169.387 2.781-.531c.403-.604.413-1.356.125-1.969 9.768-14.269 21.791-26.003 32.281-29.5 5.414-1.805 10.308-1.487 14.563 1.594 2.831 2.05 5.425 5.423 7.563 10.344-1.132.045-2.282-.176-3.375-.625l7.844 11.563 1.5-13.875c-1.071 1.263-2.464 2.112-3.969 2.563-2.267-5.406-5.084-9.21-8.375-11.594a15.8 15.8 0 0 0-7.813-2.97 17.15 17.15 0 0 0-2.094-.062zm60 0c-2.113.05-4.28.458-6.469 1.188-11.309 3.77-23.44 15.737-33.344 30.219-.685-.039-1.373.294-1.781.906-.612.919-.356 2.138.563 2.75s2.169.387 2.781-.531c.403-.604.413-1.356.125-1.969 9.768-14.269 21.791-26.003 32.281-29.5 5.414-1.805 10.308-1.487 14.563 1.594 2.831 2.05 5.425 5.423 7.563 10.344-1.132.045-2.282-.176-3.375-.625l7.844 11.563 1.5-13.875c-1.071 1.263-2.464 2.112-3.969 2.563-2.267-5.406-5.084-9.21-8.375-11.594a15.8 15.8 0 0 0-7.813-2.97 17.15 17.15 0 0 0-2.094-.062z" class="G"/></g></svg>