<?xml version="1.0"?>
<svg xmlns="http://www.w3.org/2000/svg" xmlns:xlink="http://www.w3.org/1999/xlink" width="618" height="125">
	<style>
		text {
			font-size: 14px;
			fill: #000;
			font-family: sans-serif;
		}
	</style>
	<defs>
		<g id="bit-0">
			<rect width="16" height="27" stroke="#000"/>
			<text text-anchor="middle" x="8" y="18.3">0</text>
		</g>
		<g id="bit-1">
			<rect width="16" height="27" stroke="#000"/>
			<text text-anchor="middle" x="8" y="18.3">1</text>
		</g>
		<circle id="marker" r="3.7" stroke="#000" fill="#ccc"/>
	</defs>
	
	<g transform="translate(18.5,53.5)">
		<use xlink:href="#bit-0" fill="#d5ffff"/>
		<g fill="#a4ffb4">
			<use xlink:href="#bit-0" x="16"/>
			<use xlink:href="#bit-1" x="32"/>
			<use xlink:href="#bit-1" x="48"/>
			<use xlink:href="#bit-1" x="64"/>
			<use xlink:href="#bit-1" x="80"/>
			<use xlink:href="#bit-1" x="96"/>
			<use xlink:href="#bit-0" x="112"/>
			<use xlink:href="#bit-0" x="128"/>
		</g>
		<g fill="#ffb2b4">
			<use xlink:href="#bit-0" x="144"/>
			<use xlink:href="#bit-1" x="160"/>
			<use xlink:href="#bit-0" x="176"/>
			<use xlink:href="#bit-0" x="192"/>
			<use xlink:href="#bit-0" x="208"/>
			<use xlink:href="#bit-0" x="224"/>
			<use xlink:href="#bit-0" x="240"/>
			<use xlink:href="#bit-0" x="256"/>
			<use xlink:href="#bit-0" x="272"/>
			<use xlink:href="#bit-0" x="288"/>
			<use xlink:href="#bit-0" x="304"/>
			<use xlink:href="#bit-0" x="320"/>
			<use xlink:href="#bit-0" x="336"/>
			<use xlink:href="#bit-0" x="352"/>
			<use xlink:href="#bit-0" x="368"/>
			<use xlink:href="#bit-0" x="384"/>
			<use xlink:href="#bit-0" x="400"/>
			<use xlink:href="#bit-0" x="416"/>
			<use xlink:href="#bit-0" x="432"/>
			<use xlink:href="#bit-0" x="448"/>
			<use xlink:href="#bit-0" x="464"/>
			<use xlink:href="#bit-0" x="480"/>
			<use xlink:href="#bit-0" x="496"/>
		</g>
		
		<path d="m8,-17.5 v10 m9,3 v-10 h126 v10 m3,0 v-10 h366 v10" fill="none" stroke="#000"/>
		
		<g transform="translate(0,37.5)">
			<use xlink:href="#marker" x="8"/>
			<use xlink:href="#marker" x="136"/>
			<use xlink:href="#marker" x="504"/>
		</g>
		
		<text y="58" text-anchor="middle">
			<tspan x="8">31</tspan>
			<tspan x="136">23</tspan>
			<tspan x="504">0</tspan>
		</text>
		<text y="-23.5" text-anchor="middle">
			<tspan x="5">sign</tspan>
			<tspan x="80">exponent (8-bit)</tspan>
			<tspan x="328">fraction (23-bit)</tspan>
		</text>
	</g>
	
	<text x="539" y="72">= 0.15625</text>
</svg>
