<svg xmlns="http://www.w3.org/2000/svg" height="24" viewBox="0 -960 960 960" width="24"><path d="M186-278q-5.95 0-9.975-4.035-4.025-4.035-4.025-10t4.025-9.965q4.025-4 9.975-4h588q5.95 0 9.975 4.035 4.025 4.035 4.025 10T783.975-282q-4.025 4-9.975 4H186Zm0-188q-5.95 0-9.975-4.035-4.025-4.035-4.025-10t4.025-9.965q4.025-4 9.975-4h588q5.95 0 9.975 4.035 4.025 4.035 4.025 10T783.975-470q-4.025 4-9.975 4H186Zm0-188q-5.95 0-9.975-4.035-4.025-4.035-4.025-10t4.025-9.965q4.025-4 9.975-4h588q5.95 0 9.975 4.035 4.025 4.035 4.025 10T783.975-658q-4.025 4-9.975 4H186Z"/></svg>